<?xml version="1.0" standalone="no"?>
<!DOCTYPE svg PUBLIC "-//W3C//DTD SVG 20010904//EN"
 "http://www.w3.org/TR/2001/REC-SVG-20010904/DTD/svg10.dtd">
<svg version="1.0" xmlns="http://www.w3.org/2000/svg"
 width="1533.000000pt" height="1533.000000pt" viewBox="0 0 1533.000000 1533.000000"
 preserveAspectRatio="xMidYMid meet">
<metadata>
Created by potrace 1.14, written by Peter Selinger 2001-2017
</metadata>
<g transform="translate(0.000000,1533.000000) scale(0.100000,-0.100000)"
fill="#000000" stroke="none">
<path d="M6199 15326 c-2 -2 -47 -7 -101 -10 -53 -4 -105 -8 -115 -10 -10 -2
-50 -7 -88 -10 -39 -4 -80 -8 -90 -10 -62 -11 -95 -16 -140 -21 -27 -3 -61 -8
-75 -11 -14 -2 -35 -6 -46 -8 -12 -3 -37 -7 -55 -10 -189 -32 -505 -103 -654
-147 -38 -12 -79 -23 -92 -25 -51 -9 -478 -156 -619 -212 -451 -181 -808 -372
-1084 -581 -286 -216 -583 -523 -825 -851 -38 -52 -72 -97 -75 -100 -16 -14
-270 -407 -270 -417 0 -3 -6 -14 -14 -22 -7 -9 -29 -45 -49 -81 -19 -36 -52
-94 -72 -130 -50 -88 -174 -345 -220 -455 -20 -49 -43 -103 -50 -120 -49 -110
-159 -484 -199 -675 -19 -89 -25 -120 -30 -155 -4 -23 -8 -50 -10 -62 -3 -12
-7 -43 -11 -70 -4 -26 -8 -59 -10 -73 -2 -14 -7 -56 -11 -95 -3 -38 -8 -81 -9
-95 -20 -165 -28 -803 -13 -1020 9 -129 17 -215 22 -255 3 -16 8 -57 12 -90 3
-33 8 -69 10 -80 2 -10 6 -35 9 -55 3 -20 8 -47 10 -60 3 -14 10 -54 15 -90
11 -64 17 -93 60 -275 50 -206 208 -723 231 -751 5 -6 10 -19 12 -30 2 -10 7
-26 10 -34 3 -8 27 -71 52 -140 42 -112 235 -595 269 -674 7 -17 25 -58 39
-91 92 -218 350 -825 361 -850 8 -16 33 -75 56 -130 23 -55 48 -113 55 -130
22 -51 100 -235 140 -330 20 -49 48 -114 61 -143 13 -29 24 -55 24 -58 0 -3
18 -49 41 -102 22 -53 56 -135 76 -182 19 -47 39 -94 43 -105 99 -225 247
-632 312 -855 56 -195 70 -255 72 -310 2 -31 12 -73 23 -95 11 -22 25 -60 31
-85 22 -90 73 -345 88 -440 7 -46 14 -85 19 -109 2 -13 7 -49 11 -80 3 -31 8
-59 10 -62 2 -3 6 -28 9 -56 3 -27 7 -58 9 -69 2 -10 7 -48 11 -84 4 -36 9
-74 11 -84 2 -11 6 -54 9 -96 3 -42 7 -86 9 -97 3 -12 7 -63 11 -114 3 -52 8
-114 10 -139 23 -270 23 -1051 0 -1288 -1 -20 -6 -81 -10 -135 -4 -54 -8 -117
-10 -140 -10 -107 -16 -174 -20 -197 -2 -14 -7 -54 -10 -90 -4 -36 -9 -73 -10
-82 -2 -9 -7 -48 -10 -85 -4 -37 -9 -70 -10 -73 -6 -11 -19 -147 -19 -192 1
-58 21 -89 71 -114 38 -19 70 -20 919 -18 1181 3 4500 18 5202 24 358 4 352
-1 367 315 3 61 7 146 10 190 2 44 7 130 10 190 10 177 25 278 51 342 30 71
127 208 198 279 126 127 268 175 681 234 44 6 91 13 105 15 14 2 54 6 90 10
36 3 72 8 80 10 8 2 44 7 80 10 36 4 72 8 80 10 9 2 43 6 75 10 33 4 67 9 75
10 8 2 40 6 70 10 30 3 93 13 140 20 47 8 103 17 125 20 22 2 51 7 65 10 14 3
40 7 59 10 18 2 41 7 50 9 9 3 32 7 51 10 102 16 294 60 428 97 540 151 803
359 921 727 16 48 31 109 35 135 4 27 9 59 12 70 23 117 23 604 -1 817 -2 19
-6 69 -10 110 -9 107 -22 245 -31 315 -4 31 0 47 14 65 42 55 141 208 167 260
83 164 101 317 53 438 l-25 60 20 38 c16 31 21 62 23 149 3 119 -6 162 -96
475 -23 80 -43 152 -45 160 -2 8 -11 47 -20 85 -24 98 -24 99 -41 205 -20 123
-25 346 -10 432 15 84 39 111 144 163 85 41 80 39 207 90 245 99 363 199 415
350 26 75 23 324 -5 398 -30 83 -145 245 -332 467 -57 69 -314 365 -377 435
-39 43 -93 104 -121 135 -27 31 -72 81 -99 111 -333 370 -520 600 -566 694
-46 96 -52 200 -65 1315 -10 780 -22 940 -90 1230 -67 283 -211 671 -366 985
-95 194 -123 246 -187 350 -17 28 -43 70 -58 95 -26 42 -190 269 -203 280 -3
3 -26 30 -51 60 -192 237 -514 530 -765 697 -38 26 -72 50 -75 53 -3 4 -81 53
-175 109 -178 107 -490 268 -660 340 -55 24 -118 51 -141 61 -250 113 -860
317 -1064 356 -14 3 -41 9 -60 14 -67 17 -235 50 -335 65 -55 9 -111 18 -125
20 -46 7 -184 24 -245 30 -33 3 -71 8 -85 10 -14 3 -68 7 -120 10 -52 4 -113
8 -135 11 -49 6 -1430 16 -1436 10z"/>
</g>
</svg>
