<?xml version="1.0" encoding="utf-8"?>
<!-- Generator: Adobe Illustrator 25.3.1, SVG Export Plug-In . SVG Version: 6.00 Build 0)  -->
<svg version="1.1" xmlns="http://www.w3.org/2000/svg" xmlns:xlink="http://www.w3.org/1999/xlink" x="0px" y="0px"
	 viewBox="0 0 1083 1280" style="enable-background:new 0 0 1083 1280;" xml:space="preserve">
<style type="text/css">
	.st0{fill:#3D405B;}
	.st1{fill:#94D2BD;}
	.st2{fill:#E07A5F;stroke:#F2CC8F;stroke-width:17;stroke-miterlimit:10;}
	.st3{display:none;}
	.st4{display:inline;}
</style>
<g id="Brain">
	<path class="st0" d="M-560.6-133.1c90.2-63.4,202.9-60.7,303.2-34.4c28.6,7.5,62,26.7,88.3,49.4s56,67.6,67,106.3
		c3.7,13.1,7.7,53.6,7.4,67.6c-0.8,31.1-4.2,57.6-11.4,71.9c-17.2,34.1-45.8,30.1-80.9,35.4c-30.9,4.7-87,6.5-118.2,6.3
		c-58.7-0.3-117.6-4.4-176.2,0.5s-117.7,19.3-170.2,53.9c-11.4-38.6-16-72.5-20.1-114.4C-680.3,23.9-614.6-95.1-560.6-133.1z"/>
	<circle class="st1" cx="-186.8" cy="534.5" r="53.9"/>
	<circle class="st0" cx="-190.1" cy="675.1" r="53.9"/>
</g>
<g id="Clouds">
</g>
<g id="Head">
	<g transform="translate(0.000000,1280.000000) scale(0.100000,-0.100000)">
		<path class="st2" d="M28716.2,7105.9c-61.2,89.9-251.4,314-527.8,620.7c-267.6,297.8-346.5,398.1-378.2,482.1
			c-17.7,46.4-28.8,289-28.8,632.5c-0.7,344.3-11.1,676.7-25.8,784.4c-25.1,188.7-123.8,492.4-240.3,735
			c-122.4,255.1-247,437.1-426.8,622.9c-289.7,299.3-667.1,525.6-1209,725.4c-364.2,134.2-668.6,199-1087.3,230
			c-137.1,10.3-774.8,15.5-910.4,7.4c-648.7-39.8-1379.3-268.3-1852.5-580.2c-261.7-172.5-530-464.4-753.4-820.5
			c-344.3-547.7-477-1010.7-478.4-1662.3c-1.5-531.5,80.4-914.8,331-1548.1c75.2-190.2,101.7-254.3,277.9-667.1
			c376-878.7,518.2-1229.6,572.8-1408c58.2-191.7,84-295.6,75.9-303.7c-5.2-5.2-2.9-11.8,5.2-19.9c8.1-8.1,22.9-59.7,39.8-141.5
			c95.8-454.8,137.9-897.1,128.3-1366.7c-5.9-287.5-24.3-523.4-63.4-807.2c-7.4-54.6-12.5-100.3-11.8-101.7
			c3.7-3.7,3928.4,13.3,3932.1,17.7c2.2,1.5,8.1,95.1,13.3,207.9c14.7,330.3,22.1,365.6,98,479.9
			c134.9,200.5,234.4,243.3,712.1,299.3c933.3,111.3,1234.8,227.8,1340.2,519c57.5,159.2,59,407.7,5.9,897.9l-5.9,53.1l58.2,83.3
			c68.6,96.6,97.3,156.3,107.6,218.2c8.8,53.1,0,96.6-25.1,129.7c-23.6,31-22.9,42,1.5,71.5c16.2,19.2,20.6,32.4,22.9,71.5
			c3.7,57.5-2.2,89.2-53.8,266.9c-57.5,198.3-77.4,298.6-88.5,446c-5.2,73.7,7.4,188,25.1,229.3c22.1,48.7,85.5,89.9,217.5,140.8
			c148.9,57.5,209.4,98.8,241.1,162.2c14.7,30.2,17,46.4,17,112.8C28772.2,7013,28766.3,7032.2,28716.2,7105.9z M26943.4,9704
			c-13-130.2-38.6-258.9-90.2-379.7c-87.1-203.8-246.9-360.7-447.3-453.3c-206.5-95.3-436.2-128.8-661.4-142.3
			c-130.5-7.8-261.5-8.5-392.2-6.6c-153.9,2.3-307.9,9.9-460.6,30.2c-149.7,19.8-297.5,51.7-441,98.8c-153.1,50.3-294.9,126-446,181
			c-288.5,105-593.1,139.3-898.1,152.7c-257.4,11.4-517.9,4.1-773.6,39.4c-198.1,27.3-428.8,85.9-548,261.5
			c-67.1,98.9-85.9,226.4-81.8,343.5c4.8,135.1,37.9,269.4,91.2,393.4c49.9,116.1,122.5,215.1,222.7,292.8c5.5,4.3,11,8.4,16.6,12.5
			c0.7,4.2,2.5,8.5,5.8,12.4c89.9,106.1,213.8,170.7,329.3,244.2c124.7,79.3,232.2,179.3,350.7,266.7
			c118.2,87.2,257.1,144.6,395.4,191.8c284.2,96.9,584.9,139.1,883.6,159.5c148.8,10.1,297.9,14.5,447,16.1
			c154.4,1.7,308.8,1.7,463-8.3c317.7-20.7,632.5-79.8,933-186c136.1-48.1,269.1-105.5,398.1-170.3c120.8-60.6,238-129.6,343-215.2
			c100.4-81.8,192-181.8,245.2-301.1c57-127.6,90.5-264.1,108.8-402.3C26955.3,9992.5,26957.7,9847.3,26943.4,9704z"/>
	</g>
	<g transform="translate(0.000000,1280.000000) scale(0.100000,-0.100000)">
		<path class="st2" d="M45277.2,7201.1c-61.2,89.9-251.4,314-527.8,620.7c-267.6,297.8-346.5,398.1-378.2,482.1
			c-17.7,46.4-28.8,289-28.8,632.5c-0.7,344.3-11.1,676.7-25.8,784.4c-25.1,188.7-123.8,492.4-240.3,735
			c-122.4,255.1-247,437.1-426.8,622.9c-289.7,299.3-667.1,525.6-1209,725.4c-364.2,134.2-668.6,199-1087.3,230
			c-137.1,10.3-774.8,15.5-910.4,7.4c-648.7-39.8-1379.3-268.3-1852.5-580.2c-261.7-172.5-530-464.4-753.4-820.5
			c-344.3-547.7-477-1010.7-478.4-1662.3c-1.5-531.5,80.4-914.8,331-1548.1c75.2-190.2,101.7-254.3,277.9-667.1
			c376-878.7,518.2-1229.6,572.8-1408c58.2-191.7,84-295.6,75.9-303.7c-5.2-5.2-2.9-11.8,5.2-19.9c8.1-8.1,22.9-59.7,39.8-141.5
			c95.8-454.8,137.9-897.1,128.3-1366.7c-5.9-287.5-24.3-523.4-63.4-807.2c-7.4-54.6-12.5-100.3-11.8-101.7
			c3.7-3.7,3928.4,13.3,3932.1,17.7c2.2,1.5,8.1,95.1,13.3,207.9c14.7,330.3,22.1,365.6,98,479.9
			c134.9,200.5,234.4,243.3,712.1,299.3c933.3,111.3,1234.8,227.8,1340.2,519c57.5,159.2,59,407.7,5.9,897.9l-5.9,53.1l58.2,83.3
			c68.6,96.6,97.3,156.3,107.6,218.2c8.8,53.1,0,96.6-25.1,129.7c-23.6,31-22.9,42,1.5,71.5c16.2,19.2,20.6,32.4,22.9,71.5
			c3.7,57.5-2.2,89.2-53.8,266.9c-57.5,198.3-77.4,298.6-88.5,446c-5.2,73.7,7.4,188,25.1,229.3c22.1,48.7,85.5,89.9,217.5,140.8
			c148.9,57.5,209.4,98.8,241.1,162.2c14.7,30.2,17,46.4,17,112.8C45333.2,7108.2,45327.3,7127.4,45277.2,7201.1z M43504.3,9799.2
			c-13-130.2-38.6-258.9-90.2-379.7c-87.1-203.8-246.9-360.7-447.3-453.3c-206.5-95.3-436.2-128.8-661.4-142.3
			c-130.5-7.8-261.5-8.5-392.2-6.6c-153.9,2.3-307.9,9.9-460.6,30.2c-149.7,19.8-297.5,51.7-441,98.8c-5.4,1.8-10.8,3.6-16.1,5.5
			c-6.2-11-19.5-17.9-33.3-9.3c-17.4,10.8-35.3,20.7-53.7,29.7c-162.6,79.5-354.6,89.8-532.4,81.5c-185.4-8.6-369.6-41.1-549.1-87.3
			c-211.7-54.5-416.5-134.7-613.1-229.8c-210.2-101.7-411.3-221-607.6-347.2c-93.2-60-187.7-118.6-276.2-185.3
			c-85.6-64.5-163.7-138.4-230.8-222c-8.5-10.6-26.6-8.7-35.4,0c-3.3,3.3-5.2,7.1-6.2,11c-7.3,2-13.7,7.2-16.6,16.4
			c-52.7,168.5-57.2,345.3-44.6,520c11,152.7,30.9,304.4,37.9,457.5c7,153.2,9.6,306.8,25.4,459.5c15.4,149.5,44.1,296.7,99.3,436.9
			c54,137,111.6,273.4,183.2,402.3c4.3,10.8,8.6,21.6,13.2,32.2c49.9,116.1,122.5,215.1,222.7,292.8c1.3,1,2.5,2,3.8,2.9
			c6.7,5.1,11.9,11.8,16.4,19c0.6,1-109-91.9-108.2-91c89.9,106.1,260.5,286.1,376,359.6c124.7,79.3,245.2,147.1,414.4,245.2
			c127,73.7,257.1,144.6,395.4,191.8c284.2,96.9,584.9,139.1,883.6,159.5c148.8,10.1,297.9,14.5,447,16.1
			c154.4,1.7,308.8,1.7,463-8.3c317.7-20.7,632.5-79.8,933-186c136.1-48.1,269.1-105.5,398.1-170.3c120.8-60.6,238-129.6,343-215.2
			c100.4-81.8,192-181.8,245.2-301.1c57-127.6,90.5-264.1,108.8-402.3C43516.3,10087.8,43518.7,9942.5,43504.3,9799.2z"/>
	</g>
	<g>
		<path class="st0" d="M774.9,248.4V541H157V248.4h39.5c-2.3-6.1-3.5-12.4-3.5-18.8c0-63.7,119.6-115.2,267.3-115.2
			c147.6,0,267.3,51.6,267.3,115.2c0,6.4-1.2,12.7-3.5,18.8H774.9z"/>
		<path class="st1" d="M669.9,188.1c-6-0.9-12.3-0.4-18.1,1.4c-11.5,3.5-21.2,11.9-32.9,14.6c-8.1,1.9-16.7,1-25,1.7
			c-11.8,1.1-23.3,5.8-32.6,13.2c-5,4-9.5,9.1-11.3,15.3s-0.3,13.6,4.8,17.5c2.8,2.1,6.4,3,9.9,3.3c17.2,1.2,32.8-11.9,50-11.2
			c5.7,0.2,11.3,2,16.8,3.7c14.9,4.5,29.9,8.2,45.1,11.2c7.4,1.5,14.9,2.8,22.4,2s15-4,19.5-10c6.5-8.7,5.1-21.8-1.5-30.5
			c-3.4-4.5-7.8-7.9-12.7-10.5c-3.8-2-11.9-2.6-14.8-5.3c-2.9-2.7-3-8-6.8-11C679.3,190.5,674.5,188.8,669.9,188.1z"/>
		<path class="st1" d="M282.5,220.4c16.8,5.5,35.9-1.2,52.7,4.2c5.2,1.7,10.2,4.7,13.3,9.3c3,4.6,3.7,10.9,0.8,15.6
			c-3.6,5.8-11.3,7.4-18,8.7c-14.3,2.8-28.5,6.8-42.1,11.9c-6.9,2.6-14,5.5-21.3,5.1c-7.9-0.4-15-4.7-22.4-7.5
			c-27.5-10.6-58.8-2-87.5-8.5c-5.7-1.3-12.5-4.8-12.2-10.6c0.3-4.9,5.7-8,10.7-8.4c4.9-0.4,9.9,0.9,14.8,0.3
			c15.8-2.1,22.6-20.8,36.8-26.3c8.4-3.2,14-5.6,21.2-10.7c7.1-5.1,14.8-3.6,22.6-0.1C262.6,208.1,271.2,216.7,282.5,220.4z"/>
		<path class="st1" d="M461.3,106.7c3.3-0.2,6.6,1,9.8,1.8c8,2.1,16.6,2.2,24.6,0.2c9-2.2,17.6-6.9,26.8-7
			c13.3-0.2,24.6,8.9,36.8,14.2c7.4,3.2,15.5,5.1,23.6,5.5c6,0.3,12.1-0.2,18,0.8c5.9,1,11.9,3.9,14.7,9.2c0.9,1.7,1.5,3.7,1.2,5.6
			c-0.7,6.1-8,8.7-14,9.5c-20.2,2.7-40.9-0.5-60.9,3.3c-8.5,1.6-16.6,4.5-25,6.5c-22.3,5.4-46.6,4.6-67.2-5.6
			c-6.7-3.3-13-7.6-20.2-9.9c-10-3.2-20.7-2.4-31.2-2.4c-4.4,0-9-0.2-13-2.3c-3.9-2-7-6.4-6.2-10.7c0.7-3.7,4-6.4,7.6-7.5
			c3.6-1.1,7.4-0.8,11.1-0.3c9.8,1.3,19.5,4,29.4,4c6.5,0,13.4-1.3,19-4.6C451.4,114.3,455,107.1,461.3,106.7z"/>
		<path class="st1" d="M359.7,291.2c11,3.8,23,0.5,34.3-2c11.4-2.5,24.2-4,33.7,2.7c2.6,1.9,5,4.7,4.8,7.9
			c-0.3,5.6-7.2,7.7-12.4,9.6c-10.3,3.8-18.3,11.8-27,18.5c-8.7,6.7-19.3,12.4-30.1,10.5c-5.3-0.9-10-3.6-15.1-5.4
			c-14.1-5-29.6-3.1-44.4-0.7c-3.7,0.6-7.6,1.2-11.2,0.2c-3.6-1-7-4.1-7-7.9c0-4.3,4.2-7.5,8.4-8.4c4.2-0.9,8.5-0.1,12.8-0.1
			c11.6-0.2,21.5-7.3,27.3-17C340.8,287.6,346.8,286.7,359.7,291.2z"/>
		<path class="st1" d="M485.1,325.6c21.7-5,46.4,0.2,61.5,16.6c1.6,1.7,3.1,3.6,5.2,4.6c3.7,1.7,8,0.4,11.8-0.9
			c31.1-10.8,63.6-20.4,96.4-17.5c32.8,2.9,66.1,21.1,78.2,51.7c4.7,11.9,6.7,26.1,16.8,34c6.8,5.3,15.9,6.6,23,11.4
			c9.1,6.1,13.7,17.6,13.4,28.6c-0.3,11-5,21.4-11.4,30.4c-13,18.4-33.5,31.3-55.6,35.3c-33,5.9-66-7.6-98.8-14.6
			c-25-5.4-50.7-7-76.2-4.9c-18.8,1.5-37.5,5.1-56.3,5.6s-38.5-2.5-54.2-12.9c-19.1-12.6-30.4-35.2-32.4-58
			C402.1,386.9,437.9,336.4,485.1,325.6z"/>
		<path class="st1" d="M225.6,478.5c-28.4-7.3-58.4,1.4-87.7-0.1c-4.2-0.2-8.5-0.7-12.2-2.7c-7.5-4-10.6-13.1-11.8-21.5
			c-1.7-11.2,0.1-24.9,10.1-30.3c5.2-2.8,11.5-2.6,17.4-2.4c20.1,0.6,40.6-0.2,59.8-6.2c21.4-6.7,40.6-19.9,62.5-24.9
			c17.2-4,39.4-1.3,51.5,12.9c7.5,8.9,5.9,19.6,10.6,29.3c3.5,7.2,15.9,15.1,16,23.4c0.3,17.7-29.2,27-42.3,31.3
			C270.6,497,253.4,485.7,225.6,478.5z"/>
		<g transform="translate(0.000000,1280.000000) scale(0.100000,-0.100000)">
			<path class="st2" d="M8966.6,7266.5c-61.2,89.9-251.4,314-527.8,620.7c-267.6,297.8-346.5,398.1-378.2,482.1
				c-17.7,46.4-28.8,289-28.8,632.5c-0.7,344.3-11.1,676.7-25.8,784.4c-25.1,188.7-123.8,492.4-240.3,735
				c-122.4,255.1-247,437.1-426.8,622.9c-289.7,299.3-667.1,525.6-1209,725.4c-364.2,134.2-668.6,199-1087.3,230
				c-137.1,10.3-774.8,15.5-910.4,7.4c-648.7-39.8-1379.3-268.3-1852.5-580.2c-261.7-172.5-530-464.4-753.4-820.5
				c-344.3-547.7-477-1010.7-478.4-1662.3c-1.5-531.5,80.4-914.8,331-1548.1c75.2-190.2,101.7-254.3,277.9-667.1
				c376-878.7,518.2-1229.6,572.8-1408c58.2-191.7,84-295.6,75.9-303.7c-5.2-5.2-2.9-11.8,5.2-19.9c8.1-8.1,22.9-59.7,39.8-141.5
				c95.8-454.8,137.9-897.1,128.3-1366.7c-5.9-287.5-24.3-523.4-63.4-807.2c-7.4-54.6-12.5-100.3-11.8-101.7
				c3.7-3.7,3928.4,13.3,3932.1,17.7c2.2,1.5,8.1,95.1,13.3,207.9c14.7,330.3,22.1,365.6,98,479.9
				c134.9,200.5,234.4,243.3,712.1,299.3c933.3,111.3,1234.8,227.8,1340.2,519c57.5,159.2,59,407.7,5.9,897.9l-5.9,53.1l58.2,83.3
				c68.6,96.6,97.3,156.3,107.6,218.2c8.8,53.1,0,96.6-25.1,129.7c-23.6,31-22.9,42,1.5,71.5c16.2,19.2,20.6,32.4,22.9,71.5
				c3.7,57.5-2.2,89.2-53.8,266.9c-57.5,198.3-77.4,298.6-88.5,446c-5.2,73.7,7.4,188,25.1,229.3c22.1,48.7,85.5,89.9,217.5,140.8
				c148.9,57.5,209.4,98.8,241.1,162.2c14.7,30.2,17,46.4,17,112.8C9022.7,7173.6,9016.8,7192.8,8966.6,7266.5z M6273.3,8885.7
				c-62.2-260.9-297.1-545.8-540.6-651.2c-64.4-27.9-131.3-49.7-199.8-65c-85.9-19.2-174-25.9-261.2-36
				c-85.7-9.9-170.1-25.3-252-53.1c-71.8-24.4-133.3-70.3-197.5-109.4c-72.4-44.1-151.5-78.9-234-99.1
				c-79.9-19.6-162.2-26.6-243.7-36.3c-39.6-4.7-78.9-9.9-118.6-13.3c-19.6-1.7-36.5-4.2-55.8-11.9c-68.5-27.2-123.9-75-188.5-108.9
				c-33.6-17.6-70.7-30.1-106.4-42.8c-36.2-12.9-73.3-23.2-110.8-31.6c-80.1-17.8-162.2-27.1-244-31.6
				c-80.7-4.5-161.7-4.3-242.5-2.1c-75.4,2.1-151.3,3.4-226,15.2c-135.8,21.4-263.7,77.3-372.4,161.2
				c-106.8,82.4-192.7,187.9-264.8,301.3c-12,1.8-24,3.6-36.1,5.1c-66.1,8.3-133.3,13-198.3,28.5c-65.2,15.5-125.5,44.8-178.8,85.3
				c-64,48.7-123.5,105-170.4,170.5c-43.7,61.1-75.8,130.1-98.2,201.7c-46,147.3-51.6,304.6-49.5,457.7c0.6,39.5,2.4,79,3,118.5
				c0.8,44.8,0,89.7,0.8,134.5c1.6,97.1,6.6,194.2,20.9,290.2c24.5,164.9,193.6,464.6,266.3,609.1
				c54.6,118.3,149.4,241.8,236.6,337.2c87.1,95.3,175.3,189.5,262.3,284.9c100.6,110.4,201.7,221.5,316.1,317.9
				c54,45.4,111.1,90.1,173.2,123.9c61,33.2,123.7,63,187.6,90.2c267.6,113.9,553.2,183.7,840.5,225.8
				c257.8,37.8,519.5,52.5,780,48.9c246.7-3.5,493.5-25.3,736.1-70.1c241.6-44.6,479.1-112.9,704.3-211.5
				c220.8-96.8,428.6-224.5,608.5-385.5c193.1-172.8,364.2-388,457.1-631.7c92.5-242.6,118.3-521.8-12.8-745.1
				C7035.7,9168.5,6320.8,8913.9,6273.3,8885.7L6273.3,8885.7z"/>
		</g>
	</g>
</g>
<g id="Layer_4" class="st3">
	<g id="p80tWt.tif" class="st4">
		
			<image style="overflow:visible;" width="416" height="302" id="Layer_0_1_" xlink:href="8AF6DE75D834B2E7.png"  transform="matrix(-1.3552 0 0 1.3552 3157.5769 138.8561)">
		</image>
	</g>
</g>
</svg>
